<svg width="63" height="36" viewBox="0 0 63 36" fill="none" xmlns="http://www.w3.org/2000/svg">
<path d="M8.58804 14.586C8.58804 14.586 4.42004 19.752 4.92004 22.919L2.08704 25.419V26.919C2.08704 26.919 8.92004 29.752 15.42 27.752V30.252L15.587 32.752L18.92 34.085C18.92 34.085 22.753 33.419 23.753 28.085C23.753 28.085 27.753 29.585 29.42 33.919L34.087 33.585C34.087 33.585 34.753 31.085 33.92 29.419L54.42 29.085L56.42 30.919V32.919L57.42 34.085H59.587L61.253 32.252L59.42 25.752L60.92 21.085C60.92 21.085 43.587 31.585 19.587 17.919L17.754 14.085C17.754 14.085 13.92 14.752 14.087 15.752C14.087 15.752 13.253 13.086 8.58704 14.586H8.58804Z" fill="#9B9B9A"/>
<path d="M19.463 5.63805C18.607 7.88805 17.63 8.93205 16.849 9.72405C16.5818 9.99928 16.2226 10.1663 15.8399 10.1933C15.4573 10.2202 15.0781 10.1051 14.775 9.87005L13.591 8.94405L10.167 13.9981C9.94434 14.3267 9.64451 14.5958 9.29377 14.7819C8.94302 14.9679 8.55204 15.0651 8.15503 15.0651C8.15503 15.0651 5.48303 18.3361 4.55303 21.8711C4.29303 22.8621 3.67103 23.7211 2.84903 24.3331L2.46803 24.6181C2.46803 24.6181 0.118029 26.5801 2.92303 27.4331C2.92303 27.4331 12.546 30.4721 17.879 26.2221M36.379 1.30505C36.379 1.30505 34.555 2.53205 33.179 2.79405C32.589 2.90705 32.017 3.02405 31.464 3.14405L28.296 2.47205C26.725 4.26705 24.542 5.12205 23.005 5.79605M54.963 7.80505C52.977 7.80505 52.413 7.65205 51.293 6.74805C50.4246 6.04937 49.6889 5.20019 49.121 4.24105L48.713 3.55105C46.072 3.55105 43.246 3.23105 40.665 2.80705M61.254 17.5001C58.158 16.3461 57.72 13.0851 56.696 11.7651M15.818 30.7451L15.591 31.2181C15.4444 31.5229 15.3775 31.86 15.3965 32.1978C15.4156 32.5355 15.52 32.8629 15.7 33.1493C15.8801 33.4358 16.1298 33.6718 16.4259 33.8355C16.722 33.9991 17.0547 34.085 17.393 34.0851H19.02C19.3806 34.0853 19.7346 33.988 20.0444 33.8035C20.3542 33.619 20.6084 33.3542 20.78 33.0371L23.625 27.7741C23.625 27.7741 27.126 29.2241 28.379 32.8101C28.652 33.5911 29.428 34.0851 30.255 34.0851H32.278C32.5584 34.0858 32.8357 34.0274 33.0921 33.9138C33.3484 33.8002 33.5779 33.6339 33.7656 33.4257C33.9533 33.2175 34.0951 32.972 34.1817 32.7054C34.2682 32.4387 34.2977 32.1568 34.268 31.8781C34.165 30.9501 33.977 29.9881 33.635 29.5651C33.635 29.5651 48.791 30.0021 53.642 28.9531C54.666 28.7311 55.686 29.3511 55.912 30.3741C56.022 30.8701 56.087 31.4261 56.054 32.0111C55.99 33.1511 56.907 34.0851 58.048 34.0851H58.438C59.562 34.0851 60.438 33.2851 60.511 32.2431C60.634 30.4991 60.497 27.8511 58.963 25.8121C58.963 25.8121 60.096 24.8201 60.075 21.7251M14.21 16.2181C14.21 16.2181 16.334 12.8911 18.23 15.8761C19.509 17.8911 17.922 20.9181 16.755 22.6741C16.4861 23.0776 16.0856 23.3755 15.6218 23.517C15.1579 23.6585 14.6594 23.6348 14.211 23.4501M22.421 13.5971L27.421 9.47205M26.546 19.1201L32.546 17.0621M31.921 11.7651L37.968 8.97205M34.944 22.4721L41.796 21.7251M43.796 15.6331L50.671 16.8651M41.944 11.4901L47.398 8.98705M48.04 22.7691L54.301 24.4461" stroke="#195557" stroke-width="2" stroke-miterlimit="10" stroke-linecap="round" stroke-linejoin="round"/>
</svg>
